<svg id="Capa_1" data-name="Capa 1" xmlns="http://www.w3.org/2000/svg" viewBox="0 0 493.78 87.67"><title>asado-zelaya</title><path d="M193.79,281.29l4,30.14H185.39l-2.38-18H170.49l-2.42,18H155.73l4-30,8.66-54.94h16.8Zm-12.39,0L176.73,246l-4.68,35.33Z" transform="translate(-155.73 -225.14)"/><path d="M204.26,243q0-17.83,17.58-17.84T239.46,243v11.43H227.21V243q0-5.72-5.32-5.76h-.09q-5.28,0-5.28,5.76v7.7q0,5.67,11.47,13.9t11.47,19.61v10.74q0,17.88-17.57,17.88t-17.63-17.88V283.5h12.26v11.43q0,5.76,5.37,5.76t5.32-5.76v-9.7q0-6.15-11.47-14.37t-11.48-19.92Z" transform="translate(-155.73 -225.14)"/><path d="M284,281.29l4,30.14H275.61l-2.38-18H260.72l-2.42,18H246l4-30,8.66-54.94h16.8Zm-12.38,0L267,246l-4.68,35.33Z" transform="translate(-155.73 -225.14)"/><path d="M295.36,226.48h18.87q16.32,0,16.33,17.88v49.23q0,17.79-17.11,17.84H295.36Zm12.25,12.08v60.79H313q5.32,0,5.32-5.76V244.36q0-5.81-5.32-5.8Z" transform="translate(-155.73 -225.14)"/><path d="M375.28,294.93q0,17.83-17.62,17.88t-17.58-17.88V243q0-17.83,17.58-17.84T375.28,243ZM363,243q0-5.72-5.33-5.76h-.09q-5.28,0-5.28,5.76v52q0,5.76,5.33,5.76t5.37-5.76Z" transform="translate(-155.73 -225.14)"/><path d="M435.94,233.84l-16.63,65.51h17.36v12.08H405.5v-7.36l16.62-65.51H406.06V226.48h29.88Z" transform="translate(-155.73 -225.14)"/><path d="M445.76,226.48h31.78v12.08H458v24.33h16.79V275H458v24.34h19.52v12.08H445.76Z" transform="translate(-155.73 -225.14)"/><path d="M486.63,311.43v-85h12.26v72.87h19.52v12.08Z" transform="translate(-155.73 -225.14)"/><path d="M559.93,281.29l4,30.14H551.53l-2.38-18H536.64l-2.43,18H521.88l4-30,8.66-54.94h16.8Zm-12.38,0L542.87,246l-4.67,35.33Z" transform="translate(-155.73 -225.14)"/><path d="M578.68,226.48,587,259.6l8.36-33.12h13l-14.85,48.19-.35,1v35.72H580.93V275.71l-.39-1-14.85-48.19Z" transform="translate(-155.73 -225.14)"/><path d="M645.53,281.29l4,30.14H637.13l-2.38-18H622.23l-2.42,18H607.47l4-30,8.66-54.94h16.8Zm-12.39,0L628.47,246l-4.68,35.33Z" transform="translate(-155.73 -225.14)"/></svg>